<svg xmlns="http://www.w3.org/2000/svg" viewBox="0 0 24 24" role="img" aria-labelledby="title">
  <title>WhatsApp</title>
  <path fill="#ffffff" d="M20.52 3.48A11.81 11.81 0 0 0 12.09.02C5.59.02.3 5.3.3 11.79c0 2.07.54 4.1 1.56 5.89L.2 23.96l6.44-1.69a11.75 11.75 0 0 0 5.43 1.39h.01c6.5 0 11.79-5.29 11.8-11.79a11.72 11.72 0 0 0-3.36-8.39Zm-8.43 18.2h-.01a9.84 9.84 0 0 1-5.02-1.37l-.36-.21-3.82 1 1.02-3.72-.23-.38a9.9 9.9 0 0 1-1.51-5.23C2.16 6.23 6.56 1.84 12.09 1.84c2.64 0 5.13 1.03 7 2.91a9.83 9.83 0 0 1 2.9 7.01c0 5.54-4.41 9.92-9.9 9.92Zm5.44-7.43c-.3-.15-1.75-.87-2.03-.98-.27-.1-.47-.15-.67.15-.2.3-.77.98-.94 1.18-.17.2-.35.22-.65.07-.3-.15-1.26-.46-2.4-1.46-.89-.79-1.5-1.76-1.67-2.06-.17-.3-.02-.46.13-.61.13-.13.3-.35.45-.52.15-.17.2-.3.3-.5.1-.2.05-.37-.02-.52-.08-.15-.67-1.62-.92-2.22-.24-.58-.49-.5-.67-.5h-.57c-.2 0-.52.08-.79.38s-1.04 1.01-1.04 2.46 1.06 2.86 1.21 3.06c.15.2 2.09 3.19 5.08 4.47.71.3 1.27.49 1.7.62.71.23 1.36.2 1.88.12.57-.08 1.75-.72 1.99-1.42.25-.7.25-1.29.17-1.42-.07-.12-.27-.2-.57-.35Z"/>
</svg>
